<mxfile host="app.diagrams.net" modified="2022-11-08T06:28:20.344Z" agent="5.0 (Macintosh; Intel Mac OS X 10_15_7) AppleWebKit/537.36 (KHTML, like Gecko) Chrome/107.0.0.0 Safari/537.36" etag="M8DIEaXOdwkjDjv_6u9Z" version="20.5.3" type="github">
  <diagram name="Page-1" id="c7558073-3199-34d8-9f00-42111426c3f3">
    <mxGraphModel dx="3133" dy="2250" grid="0" gridSize="10" guides="1" tooltips="1" connect="1" arrows="1" fold="1" page="0" pageScale="1" pageWidth="827" pageHeight="1169" background="#ffffff" math="0" shadow="1">
      <root>
        <mxCell id="0" />
        <mxCell id="1" parent="0" />
        <mxCell id="CvmV0N3J7cFWJk9qTeNM-98" value="&lt;font style=&quot;font-size: 50px&quot;&gt;relilab - Workflow Öffentlichkeitsarbeit&lt;/font&gt;" style="whiteSpace=wrap;html=1;fontFamily=yanone kaffeesatz;fontSource=https%3A%2F%2Ffonts.googleapis.com%2Fcss%3Ffamily%3Dyanone%2Bkaffeesatz;strokeColor=#82b366;fontStyle=0;labelBackgroundColor=none;labelBorderColor=none;gradientDirection=east;fontColor=#FFFFFF;rounded=1;fillColor=#34b2f6;gradientColor=#d027f8;fontSize=25;verticalAlign=middle;textDirection=ltr;horizontal=1;" parent="1" vertex="1">
          <mxGeometry x="-66" y="-537" width="2287" height="100" as="geometry" />
        </mxCell>
        <mxCell id="CvmV0N3J7cFWJk9qTeNM-125" value="Newsletter" style="whiteSpace=wrap;html=1;fontFamily=yanone kaffeesatz;fontSource=https%3A%2F%2Ffonts.googleapis.com%2Fcss%3Ffamily%3Dyanone%2Bkaffeesatz;strokeColor=#82b366;fontStyle=0;labelBackgroundColor=none;labelBorderColor=none;gradientDirection=east;fillColor=#d225f8;gradientColor=#ff8103;fontColor=#FFFFFF;rounded=1;sketch=0;fontSize=50;verticalAlign=middle;" parent="1" vertex="1">
          <mxGeometry x="1887" y="-156" width="335" height="120" as="geometry" />
        </mxCell>
        <mxCell id="2T0e-qGv-KkMXz0yLl3p-82" value="Twitter" style="dashed=0;outlineConnect=0;html=1;align=center;labelPosition=center;verticalLabelPosition=bottom;verticalAlign=top;shape=mxgraph.weblogos.twitter;fillColor=#1DA1F2;strokeColor=none;rounded=1;sketch=0;fontFamily=yanone kaffeesatz;fontSource=https%3A%2F%2Ffonts.googleapis.com%2Fcss%3Ffamily%3Dyanone%2Bkaffeesatz;fontSize=50;" parent="1" vertex="1">
          <mxGeometry x="1665" y="3" width="126" height="104" as="geometry" />
        </mxCell>
        <mxCell id="NoVdrWzSMcbFDA59EJDr-10" value="" style="group" parent="1" vertex="1" connectable="0">
          <mxGeometry x="1675" y="-369" width="532" height="122" as="geometry" />
        </mxCell>
        <UserObject label="" link="https://relilab.org" id="NoVdrWzSMcbFDA59EJDr-2">
          <mxCell style="dashed=0;outlineConnect=0;html=1;align=center;labelPosition=center;verticalLabelPosition=bottom;verticalAlign=top;shape=mxgraph.webicons.wordpress_2;fillColor=#35E2EE;gradientColor=#0E4D99" parent="NoVdrWzSMcbFDA59EJDr-10" vertex="1">
            <mxGeometry y="8.900000000000006" width="111" height="102.2" as="geometry" />
          </mxCell>
        </UserObject>
        <mxCell id="NoVdrWzSMcbFDA59EJDr-8" style="edgeStyle=orthogonalEdgeStyle;rounded=0;orthogonalLoop=1;jettySize=auto;html=1;shape=link;" parent="NoVdrWzSMcbFDA59EJDr-10" source="NoVdrWzSMcbFDA59EJDr-7" target="NoVdrWzSMcbFDA59EJDr-2" edge="1">
          <mxGeometry relative="1" as="geometry" />
        </mxCell>
        <mxCell id="NoVdrWzSMcbFDA59EJDr-7" value="relilab.org" style="whiteSpace=wrap;html=1;fontFamily=yanone kaffeesatz;fontSource=https%3A%2F%2Ffonts.googleapis.com%2Fcss%3Ffamily%3Dyanone%2Bkaffeesatz;strokeColor=#82b366;fontStyle=0;labelBackgroundColor=none;labelBorderColor=none;gradientDirection=east;fillColor=#d225f8;gradientColor=#ff8103;fontColor=#FFFFFF;rounded=1;sketch=0;fontSize=50;" parent="NoVdrWzSMcbFDA59EJDr-10" vertex="1">
          <mxGeometry x="226" width="306" height="120" as="geometry" />
        </mxCell>
        <mxCell id="NoVdrWzSMcbFDA59EJDr-21" value="" style="shape=image;html=1;verticalAlign=top;verticalLabelPosition=bottom;labelBackgroundColor=#ffffff;imageAspect=0;aspect=fixed;image=https://cdn3.iconfinder.com/data/icons/2018-social-media-logotypes/1000/2018_social_media_popular_app_logo_instagram-128.png" parent="1" vertex="1">
          <mxGeometry x="1661" y="323" width="128" height="128" as="geometry" />
        </mxCell>
        <mxCell id="NoVdrWzSMcbFDA59EJDr-23" value="instagram.com/relilab" style="whiteSpace=wrap;html=1;fontFamily=yanone kaffeesatz;fontSource=https%3A%2F%2Ffonts.googleapis.com%2Fcss%3Ffamily%3Dyanone%2Bkaffeesatz;strokeColor=#82b366;fontStyle=0;labelBackgroundColor=none;labelBorderColor=none;gradientDirection=east;fillColor=#d225f8;gradientColor=#ff8103;fontColor=#FFFFFF;rounded=1;sketch=0;fontSize=50;" parent="1" vertex="1">
          <mxGeometry x="1886" y="323" width="377" height="120" as="geometry" />
        </mxCell>
        <mxCell id="NoVdrWzSMcbFDA59EJDr-24" value="" style="shape=image;verticalLabelPosition=bottom;verticalAlign=top;imageAspect=0;image=https://scontent-muc2-1.xx.fbcdn.net/v/t1.6435-9/148889662_10219783912331641_6564038761010964186_n.jpg?_nc_cat=103&amp;ccb=1-7&amp;_nc_sid=8631f5&amp;_nc_ohc=cS952StNupAAX849W7g&amp;_nc_ht=scontent-muc2-1.xx&amp;oh=00_AfDyzGemaeMXFrl7AIdIuNSyyX0iy0znMBKs7jcaRFJ9vg&amp;oe=639092F1" parent="1" vertex="1">
          <mxGeometry x="1870" y="498" width="520" height="271" as="geometry" />
        </mxCell>
        <mxCell id="NoVdrWzSMcbFDA59EJDr-26" value="" style="shape=image;html=1;verticalAlign=top;verticalLabelPosition=bottom;labelBackgroundColor=#ffffff;imageAspect=0;aspect=fixed;image=https://cdn1.iconfinder.com/data/icons/social-media-2285/512/Colored_Facebook3_svg-128.png" parent="1" vertex="1">
          <mxGeometry x="1661" y="564" width="128" height="128" as="geometry" />
        </mxCell>
        <mxCell id="NoVdrWzSMcbFDA59EJDr-27" value="" style="edgeStyle=orthogonalEdgeStyle;shape=flexArrow;rounded=0;orthogonalLoop=1;jettySize=auto;html=1;" parent="1" source="NoVdrWzSMcbFDA59EJDr-7" target="CvmV0N3J7cFWJk9qTeNM-125" edge="1">
          <mxGeometry relative="1" as="geometry" />
        </mxCell>
        <mxCell id="NoVdrWzSMcbFDA59EJDr-28" value="twitter.com/relilab" style="whiteSpace=wrap;html=1;fontFamily=yanone kaffeesatz;fontSource=https%3A%2F%2Ffonts.googleapis.com%2Fcss%3Ffamily%3Dyanone%2Bkaffeesatz;strokeColor=#82b366;fontStyle=0;labelBackgroundColor=none;labelBorderColor=none;gradientDirection=east;fillColor=#d225f8;gradientColor=#ff8103;fontColor=#FFFFFF;rounded=1;sketch=0;fontSize=50;verticalAlign=middle;" parent="1" vertex="1">
          <mxGeometry x="1886" y="-5" width="335" height="120" as="geometry" />
        </mxCell>
        <mxCell id="NoVdrWzSMcbFDA59EJDr-19" style="edgeStyle=orthogonalEdgeStyle;rounded=0;orthogonalLoop=1;jettySize=auto;html=1;shape=link;" parent="1" source="NoVdrWzSMcbFDA59EJDr-20" edge="1">
          <mxGeometry relative="1" as="geometry">
            <mxPoint x="1782" y="903" as="targetPoint" />
          </mxGeometry>
        </mxCell>
        <mxCell id="NoVdrWzSMcbFDA59EJDr-16" value="" style="image;image=img/lib/atlassian/Trello_Logo.svg;" parent="1" vertex="1">
          <mxGeometry x="1673" y="843" width="104" height="104" as="geometry" />
        </mxCell>
        <mxCell id="NoVdrWzSMcbFDA59EJDr-20" value="trello.com" style="whiteSpace=wrap;html=1;fontFamily=yanone kaffeesatz;fontSource=https%3A%2F%2Ffonts.googleapis.com%2Fcss%3Ffamily%3Dyanone%2Bkaffeesatz;strokeColor=#82b366;fontStyle=0;labelBackgroundColor=none;labelBorderColor=none;gradientDirection=east;fillColor=#d225f8;gradientColor=#ff8103;fontColor=#FFFFFF;rounded=1;sketch=0;fontSize=50;" parent="1" vertex="1">
          <mxGeometry x="1897" y="843" width="306" height="120" as="geometry" />
        </mxCell>
        <UserObject label="" link="https://hackmd.io/@relilab/breakouts#/" id="NoVdrWzSMcbFDA59EJDr-31">
          <mxCell style="shape=image;html=1;verticalAlign=top;verticalLabelPosition=bottom;labelBackgroundColor=#ffffff;imageAspect=0;aspect=fixed;image=https://cdn2.iconfinder.com/data/icons/user-interface-ui-1-set/64/link-chain-hyperlink-linked-internet-128.png" parent="1" vertex="1">
            <mxGeometry x="2222" y="1031" width="85" height="85" as="geometry" />
          </mxCell>
        </UserObject>
        <mxCell id="NoVdrWzSMcbFDA59EJDr-32" value="hackmd.io/@relilab/breakouts" style="whiteSpace=wrap;html=1;fontFamily=yanone kaffeesatz;fontSource=https%3A%2F%2Ffonts.googleapis.com%2Fcss%3Ffamily%3Dyanone%2Bkaffeesatz;strokeColor=#82b366;fontStyle=0;labelBackgroundColor=none;labelBorderColor=none;gradientDirection=east;fillColor=#d225f8;gradientColor=#ff8103;fontColor=#FFFFFF;rounded=1;sketch=0;fontSize=50;verticalAlign=middle;" parent="1" vertex="1">
          <mxGeometry x="1670" y="1013.5" width="521" height="120" as="geometry" />
        </mxCell>
        <mxCell id="NoVdrWzSMcbFDA59EJDr-35" style="edgeStyle=isometricEdgeStyle;shape=flexArrow;rounded=0;orthogonalLoop=1;jettySize=auto;html=1;exitX=1;exitY=0.5;exitDx=0;exitDy=0;entryX=1;entryY=0.25;entryDx=0;entryDy=0;" parent="1" source="NoVdrWzSMcbFDA59EJDr-7" target="CvmV0N3J7cFWJk9qTeNM-125" edge="1">
          <mxGeometry relative="1" as="geometry">
            <Array as="points">
              <mxPoint x="2409" y="-258" />
            </Array>
          </mxGeometry>
        </mxCell>
        <UserObject label="https://relilab.org&lt;br&gt;" link="https://relilab.org" id="HG5dgkN9qcbYn60SzH_j-4">
          <mxCell style="html=1;verticalLabelPosition=bottom;align=center;labelBackgroundColor=#ffffff;verticalAlign=top;strokeWidth=2;strokeColor=#0080F0;shadow=0;dashed=0;shape=mxgraph.ios7.icons.link;" vertex="1" parent="1">
            <mxGeometry x="2212" y="-417" width="30" height="30" as="geometry" />
          </mxCell>
        </UserObject>
        <UserObject label="Aus Canva für Instagram planen" link="https://www.canva.com/help/scheduling-posts-on-instagram/" id="HG5dgkN9qcbYn60SzH_j-5">
          <mxCell style="html=1;verticalLabelPosition=bottom;align=center;labelBackgroundColor=#ffffff;verticalAlign=top;strokeWidth=2;strokeColor=#0080F0;shadow=0;dashed=0;shape=mxgraph.ios7.icons.link;" vertex="1" parent="1">
            <mxGeometry x="2332" y="301" width="30" height="30" as="geometry" />
          </mxCell>
        </UserObject>
        <object label="Inhaltsplaner" id="HG5dgkN9qcbYn60SzH_j-6">
          <mxCell style="rounded=1;whiteSpace=wrap;html=1;" vertex="1" parent="1">
            <mxGeometry x="2030" y="157" width="120" height="60" as="geometry" />
          </mxCell>
        </object>
        <mxCell id="HG5dgkN9qcbYn60SzH_j-24" value="" style="group" vertex="1" connectable="0" parent="1">
          <mxGeometry x="2725" y="41" width="513" height="400" as="geometry" />
        </mxCell>
        <mxCell id="HG5dgkN9qcbYn60SzH_j-22" value="" style="rounded=1;whiteSpace=wrap;html=1;fontFamily=yanone kaffeesatz;fontSource=https%3A%2F%2Ffonts.googleapis.com%2Fcss%3Ffamily%3Dyanone%2Bkaffeesatz;fontSize=12;" vertex="1" parent="HG5dgkN9qcbYn60SzH_j-24">
          <mxGeometry width="513" height="400" as="geometry" />
        </mxCell>
        <UserObject label="&lt;a href=&quot;https://www.canva.com/planner&quot;&gt;&lt;font style=&quot;font-size: 48px;&quot; data-font-src=&quot;https://fonts.googleapis.com/css?family=yanone+kaffeesatz&quot; face=&quot;yanone kaffeesatz&quot;&gt;Inhaltsplaner&lt;/font&gt;&lt;/a&gt;" link="https://www.canva.com/planner" id="HG5dgkN9qcbYn60SzH_j-7">
          <mxCell style="label;whiteSpace=wrap;shape=image;html=1;verticalAlign=top;verticalLabelPosition=bottom;labelBackgroundColor=#ffffff;imageAspect=0;aspect=fixed;image=https://i.imgur.com/8tpCEJ0.png;rounded=1;align=center;" vertex="1" parent="HG5dgkN9qcbYn60SzH_j-24">
            <mxGeometry x="95" y="114" width="311" height="172" as="geometry" />
          </mxCell>
        </UserObject>
        <mxCell id="HG5dgkN9qcbYn60SzH_j-14" value="" style="shape=image;verticalLabelPosition=bottom;labelBackgroundColor=default;verticalAlign=top;aspect=fixed;imageAspect=0;image=https://static.canva.com/web/images/c312071b10daa85e10047f326751843d.svg;" vertex="1" parent="HG5dgkN9qcbYn60SzH_j-24">
          <mxGeometry x="190.2800000000002" y="51" width="132.44" height="49.67" as="geometry" />
        </mxCell>
      </root>
    </mxGraphModel>
  </diagram>
</mxfile>
